<svg xmlns="http://www.w3.org/2000/svg" xmlns:xlink="http://www.w3.org/1999/xlink" width="500" zoomAndPan="magnify" viewBox="0 0 375 374.999991" height="500" preserveAspectRatio="xMidYMid meet" version="1.0"><defs><g/><clipPath id="309ac0d588"><path d="M 10.707031 3.035156 L 367.105469 3.035156 L 367.105469 371.972656 L 10.707031 371.972656 Z M 10.707031 3.035156 " clip-rule="nonzero"/></clipPath><clipPath id="00235f6a91"><path d="M 23.457031 3.035156 L 354.492188 3.035156 C 357.875 3.035156 361.117188 4.378906 363.507812 6.769531 C 365.898438 9.160156 367.242188 12.402344 367.242188 15.785156 L 367.242188 359.214844 C 367.242188 362.597656 365.898438 365.839844 363.507812 368.230469 C 361.117188 370.621094 357.875 371.964844 354.492188 371.964844 L 23.457031 371.964844 C 20.074219 371.964844 16.832031 370.621094 14.441406 368.230469 C 12.050781 365.839844 10.707031 362.597656 10.707031 359.214844 L 10.707031 15.785156 C 10.707031 12.402344 12.050781 9.160156 14.441406 6.769531 C 16.832031 4.378906 20.074219 3.035156 23.457031 3.035156 Z M 23.457031 3.035156 " clip-rule="nonzero"/></clipPath><clipPath id="ef9e28cef9"><path d="M 7.746094 73.414062 L 367.097656 73.414062 L 367.097656 210.660156 L 7.746094 210.660156 Z M 7.746094 73.414062 " clip-rule="nonzero"/></clipPath><clipPath id="6f15b35327"><path d="M 267.988281 60.765625 L 329.917969 60.765625 L 329.917969 122.691406 L 267.988281 122.691406 Z M 267.988281 60.765625 " clip-rule="nonzero"/></clipPath><clipPath id="073503b21f"><path d="M 298.953125 60.765625 C 281.851562 60.765625 267.988281 74.628906 267.988281 91.730469 C 267.988281 108.828125 281.851562 122.691406 298.953125 122.691406 C 316.054688 122.691406 329.917969 108.828125 329.917969 91.730469 C 329.917969 74.628906 316.054688 60.765625 298.953125 60.765625 Z M 298.953125 60.765625 " clip-rule="nonzero"/></clipPath></defs><rect x="-37.5" width="450" fill="#ffffff" y="-37.499999" height="449.999989" fill-opacity="1"/><rect x="-37.5" width="450" fill="#ffffff" y="-37.499999" height="449.999989" fill-opacity="1"/><g clip-path="url(#309ac0d588)"><g clip-path="url(#00235f6a91)"><path stroke-linecap="butt" transform="matrix(0.737886, 0, 0, 0.737886, 10.706128, 3.033793)" fill="none" stroke-linejoin="miter" d="M 17.280324 0.00184774 L 465.906936 0.00184774 C 470.491403 0.00184774 474.885292 1.822929 478.125123 5.06276 C 481.364954 8.302591 483.186035 12.69648 483.186035 17.280947 L 483.186035 482.704919 C 483.186035 487.289386 481.364954 491.683274 478.125123 494.923105 C 474.885292 498.162937 470.491403 499.984018 465.906936 499.984018 L 17.280324 499.984018 C 12.695857 499.984018 8.301968 498.162937 5.062137 494.923105 C 1.822306 491.683274 0.00122471 487.289386 0.00122471 482.704919 L 0.00122471 17.280947 C 0.00122471 12.69648 1.822306 8.302591 5.062137 5.06276 C 8.301968 1.822929 12.695857 0.00184774 17.280324 0.00184774 Z M 17.280324 0.00184774 " stroke="#000000" stroke-width="10.164174" stroke-opacity="1" stroke-miterlimit="4"/></g></g><g clip-path="url(#ef9e28cef9)"><path fill="#000000" d="M 367.0625 210.660156 L 289.386719 172.113281 L 264.9375 187.925781 L 235.539062 165.292969 L 235.539062 171.800781 L 225.019531 154.75 L 176.589844 169.941406 L 170.953125 174.613281 L 184.269531 154.027344 L 206.140625 84.164062 L 192.9375 111.859375 L 190.460938 89.539062 L 153.324219 149.480469 L 153.324219 116.410156 L 129.804688 142.039062 L 123.675781 171.753906 L 121.34375 171.800781 L 91.328125 190.714844 L 110.511719 159.402344 L 63.882812 192.648438 L 91.328125 154.441406 L 91.945312 134.289062 L 7.769531 207.148438 L 95.96875 114.757812 L 133.105469 130.257812 L 156.625 104.214844 L 158.480469 121.886719 L 190.265625 78.839844 L 194.382812 84.992188 L 203.25 74.761719 L 203.25 73.417969 L 276.285156 150.71875 L 288.664062 146.585938 Z M 367.0625 210.660156 " fill-opacity="1" fill-rule="nonzero"/></g><g clip-path="url(#6f15b35327)"><g clip-path="url(#073503b21f)"><path fill="#000000" d="M 267.988281 60.765625 L 329.917969 60.765625 L 329.917969 122.691406 L 267.988281 122.691406 Z M 267.988281 60.765625 " fill-opacity="1" fill-rule="nonzero"/></g></g><g fill="#000000" fill-opacity="1"><g transform="translate(97.775318, 260.204822)"><g><path d="M 6.320312 0 L 18.285156 0 L 18.285156 -14.675781 L 26.941406 -14.675781 C 39.660156 -14.675781 47.863281 -22.125 47.863281 -33.636719 C 47.863281 -45.226562 39.660156 -52.675781 26.941406 -52.675781 L 6.320312 -52.675781 Z M 18.210938 -24.984375 L 18.210938 -42.21875 L 25.960938 -42.21875 C 32.207031 -42.21875 35.671875 -39.058594 35.671875 -33.5625 C 35.671875 -28.070312 32.207031 -24.984375 25.960938 -24.984375 Z M 18.210938 -24.984375 "/></g></g></g><g fill="#000000" fill-opacity="1"><g transform="translate(143.977309, 260.204822)"><g><path d="M 24.382812 1.054688 C 34.089844 1.054688 41.765625 -3.914062 45.226562 -12.265625 L 33.636719 -12.265625 C 31.757812 -9.632812 28.371094 -8.128906 24.609375 -8.128906 C 19.414062 -8.128906 15.351562 -11.0625 14.296875 -16.480469 L 45.980469 -16.480469 C 46.65625 -30.929688 38.078125 -40.5625 24.53125 -40.5625 C 11.738281 -40.5625 2.933594 -32.058594 2.933594 -19.792969 C 2.933594 -7.449219 11.664062 1.054688 24.382812 1.054688 Z M 14.375 -23.703125 C 15.652344 -28.519531 19.566406 -31.457031 24.609375 -31.457031 C 29.875 -31.457031 33.636719 -28.519531 34.917969 -23.703125 Z M 14.375 -23.703125 "/></g></g></g><g fill="#000000" fill-opacity="1"><g transform="translate(188.975337, 260.204822)"><g><path d="M 18.890625 0.753906 C 24.757812 0.753906 29.574219 -1.128906 32.960938 -4.589844 L 34.242188 0 L 42.746094 0 L 42.746094 -23.78125 C 42.746094 -34.242188 35.671875 -40.5625 23.855469 -40.5625 C 13.769531 -40.5625 7.148438 -35.746094 5.71875 -27.167969 L 16.707031 -27.167969 C 17.382812 -29.949219 20.242188 -31.832031 23.929688 -31.832031 C 28.445312 -31.832031 31.53125 -29.273438 31.53125 -25.359375 L 31.53125 -23.554688 L 17.234375 -23.554688 C 9.03125 -23.554688 3.761719 -18.8125 3.761719 -11.515625 C 3.761719 -3.914062 9.558594 0.753906 18.890625 0.753906 Z M 15.050781 -11.964844 C 15.050781 -14.675781 17.308594 -16.40625 20.769531 -16.40625 L 31.605469 -16.40625 C 31.382812 -11.0625 27.242188 -7.449219 21.523438 -7.449219 C 17.609375 -7.449219 15.050781 -9.257812 15.050781 -11.964844 Z M 15.050781 -11.964844 "/></g></g></g><g fill="#000000" fill-opacity="1"><g transform="translate(232.84464, 260.204822)"><g><path d="M 5.71875 0 L 17.15625 0 L 17.15625 -15.050781 L 23.328125 -15.050781 L 32.058594 0 L 45.378906 0 L 34.015625 -18.890625 C 36.121094 -20.769531 37.777344 -23.402344 39.058594 -26.941406 L 43.648438 -39.507812 L 31.304688 -39.507812 L 28.519531 -30.929688 C 27.015625 -26.488281 24.910156 -25.285156 20.09375 -25.285156 L 17.15625 -25.285156 L 17.15625 -55.6875 L 5.71875 -55.6875 Z M 5.71875 0 "/></g></g></g><g fill="#000000" fill-opacity="1"><g transform="translate(80.352383, 295.483102)"><g><path d="M 13.28125 -13.421875 L 8.5 -13.421875 L 8.5 0 L 5.25 0 L 5.25 -13.421875 L 0.46875 -13.421875 L 0.46875 -16.140625 L 13.28125 -16.140625 Z M 13.28125 -13.421875 "/></g></g></g><g fill="#000000" fill-opacity="1"><g transform="translate(112.167675, 295.483102)"><g><path d="M 4.890625 -9.78125 L 11.265625 -9.78125 L 11.265625 -16.140625 L 14.515625 -16.140625 L 14.515625 0 L 11.265625 0 L 11.265625 -7.0625 L 4.890625 -7.0625 L 4.890625 0 L 1.640625 0 L 1.640625 -16.140625 L 4.890625 -16.140625 Z M 4.890625 -9.78125 "/></g></g></g><g fill="#000000" fill-opacity="1"><g transform="translate(146.485823, 295.483102)"><g><path d="M 12.46875 -15.625 C 13.144531 -15.34375 13.707031 -14.835938 14.15625 -14.109375 C 14.601562 -13.390625 14.828125 -12.554688 14.828125 -11.609375 C 14.828125 -10.410156 14.457031 -9.398438 13.71875 -8.578125 C 12.976562 -7.753906 11.929688 -7.265625 10.578125 -7.109375 C 11.160156 -6.703125 11.601562 -6.363281 11.90625 -6.09375 C 12.21875 -5.832031 12.554688 -5.460938 12.921875 -4.984375 C 13.296875 -4.515625 13.753906 -3.84375 14.296875 -2.96875 L 16.140625 0 L 12.25 0 L 9.625 -3.921875 C 9.039062 -4.796875 8.585938 -5.414062 8.265625 -5.78125 C 7.941406 -6.144531 7.597656 -6.394531 7.234375 -6.53125 C 6.878906 -6.664062 6.367188 -6.734375 5.703125 -6.734375 L 4.890625 -6.734375 L 4.890625 0 L 1.640625 0 L 1.640625 -16.140625 L 8.703125 -16.140625 C 9.472656 -16.140625 10.164062 -16.101562 10.78125 -16.03125 C 11.40625 -15.96875 11.96875 -15.832031 12.46875 -15.625 Z M 10.171875 -9.5 C 10.554688 -9.613281 10.867188 -9.835938 11.109375 -10.171875 C 11.347656 -10.503906 11.46875 -10.914062 11.46875 -11.40625 C 11.46875 -12.257812 11.101562 -12.851562 10.375 -13.1875 C 10.175781 -13.28125 9.929688 -13.34375 9.640625 -13.375 C 9.359375 -13.40625 8.875 -13.421875 8.1875 -13.421875 L 4.890625 -13.421875 L 4.890625 -9.3125 L 7.75 -9.3125 C 8.925781 -9.3125 9.734375 -9.375 10.171875 -9.5 Z M 10.171875 -9.5 "/></g></g></g><g fill="#000000" fill-opacity="1"><g transform="translate(180.803975, 295.483102)"><g><path d="M 13.625 -13.421875 L 4.890625 -13.421875 L 4.890625 -9.828125 L 13.015625 -9.828125 L 13.015625 -7.109375 L 4.890625 -7.109375 L 4.890625 -2.734375 L 13.90625 -2.734375 L 13.90625 0 L 1.640625 0 L 1.640625 -16.140625 L 13.625 -16.140625 Z M 13.625 -13.421875 "/></g></g></g><g fill="#000000" fill-opacity="1"><g transform="translate(213.881973, 295.483102)"><g><path d="M 16.21875 0 L 12.65625 0 L 11.25 -3.65625 L 4.796875 -3.65625 L 3.46875 0 L 0 0 L 6.296875 -16.140625 L 9.734375 -16.140625 Z M 5.796875 -6.375 L 10.21875 -6.375 L 7.984375 -12.375 Z M 5.796875 -6.375 "/></g></g></g><g fill="#000000" fill-opacity="1"><g transform="translate(248.200117, 295.483102)"><g><path d="M 12.78125 -14.640625 C 14.363281 -13.222656 15.15625 -10.96875 15.15625 -7.875 C 15.15625 -5.269531 14.453125 -3.234375 13.046875 -1.765625 C 11.953125 -0.585938 10.265625 0 7.984375 0 L 1.625 0 L 1.625 -16.140625 L 7.90625 -16.140625 C 9.050781 -16.140625 10 -16.019531 10.75 -15.78125 C 11.5 -15.550781 12.175781 -15.171875 12.78125 -14.640625 Z M 11.796875 -8.046875 C 11.796875 -9.597656 11.609375 -10.757812 11.234375 -11.53125 C 10.867188 -12.300781 10.335938 -12.804688 9.640625 -13.046875 C 8.953125 -13.296875 8.007812 -13.421875 6.8125 -13.421875 L 4.875 -13.421875 L 4.875 -2.734375 L 7.578125 -2.734375 C 8.585938 -2.734375 9.390625 -2.863281 9.984375 -3.125 C 10.578125 -3.382812 11.023438 -3.894531 11.328125 -4.65625 C 11.640625 -5.425781 11.796875 -6.554688 11.796875 -8.046875 Z M 11.796875 -8.046875 "/></g></g></g><g fill="#000000" fill-opacity="1"><g transform="translate(282.518262, 295.483102)"><g><path d="M 7.28125 -16.40625 C 9.070312 -16.40625 10.535156 -16.007812 11.671875 -15.21875 C 12.804688 -14.425781 13.398438 -13.191406 13.453125 -11.515625 L 10.1875 -11.390625 C 10.082031 -12.140625 9.804688 -12.71875 9.359375 -13.125 C 8.921875 -13.53125 8.210938 -13.734375 7.234375 -13.734375 C 6.554688 -13.734375 5.929688 -13.613281 5.359375 -13.375 C 4.796875 -13.132812 4.515625 -12.71875 4.515625 -12.125 C 4.515625 -11.632812 4.769531 -11.238281 5.28125 -10.9375 C 5.789062 -10.644531 6.695312 -10.351562 8 -10.0625 C 9.21875 -9.769531 10.222656 -9.460938 11.015625 -9.140625 C 11.804688 -8.816406 12.484375 -8.296875 13.046875 -7.578125 C 13.617188 -6.867188 13.90625 -5.90625 13.90625 -4.6875 C 13.90625 -4.070312 13.757812 -3.414062 13.46875 -2.71875 C 13.1875 -2.03125 12.722656 -1.441406 12.078125 -0.953125 C 11.597656 -0.554688 10.960938 -0.253906 10.171875 -0.046875 C 9.390625 0.160156 8.476562 0.265625 7.4375 0.265625 C 5.425781 0.265625 3.878906 -0.1875 2.796875 -1.09375 C 1.710938 -2 1.050781 -3.382812 0.8125 -5.25 L 3.96875 -5.546875 C 4.3125 -3.484375 5.484375 -2.453125 7.484375 -2.453125 C 8.535156 -2.453125 9.328125 -2.671875 9.859375 -3.109375 C 10.398438 -3.554688 10.671875 -4.082031 10.671875 -4.6875 C 10.671875 -5.125 10.535156 -5.46875 10.265625 -5.71875 C 10.003906 -5.976562 9.59375 -6.203125 9.03125 -6.390625 C 8.46875 -6.578125 7.582031 -6.816406 6.375 -7.109375 C 4.875 -7.429688 3.664062 -7.984375 2.75 -8.765625 C 1.84375 -9.546875 1.390625 -10.59375 1.390625 -11.90625 C 1.390625 -12.613281 1.570312 -13.304688 1.9375 -13.984375 C 2.300781 -14.671875 2.921875 -15.242188 3.796875 -15.703125 C 4.679688 -16.171875 5.84375 -16.40625 7.28125 -16.40625 Z M 7.28125 -16.40625 "/></g></g></g></svg>